<svg height="512pt" viewBox="-11 0 512 512" width="512pt" xmlns="http://www.w3.org/2000/svg"><path d="m415.789062 504.5h-293.960937c-63.140625 0-114.328125-51.1875-114.328125-114.328125v-315.273437c0-37.222657 30.175781-67.398438 67.398438-67.398438h340.890624c37.222657 0 67.398438 30.175781 67.398438 67.398438v362.203124c0 37.222657-30.175781 67.398438-67.398438 67.398438zm0 0" fill="#eeeeed"/><path d="m7.5 74.898438v315.273437c0 63.140625 51.1875 114.328125 114.328125 114.328125h140.585937c-117.902343-77.988281-139.011718-340.355469-139.726562-497h-47.789062c-37.222657 0-67.398438 30.175781-67.398438 67.398438zm0 0" fill="#dfdfdd"/><path d="m58.441406 332.726562v-257.960937c0-9.015625 7.308594-16.324219 16.324219-16.324219h341.15625c9.015625 0 16.324219 7.308594 16.324219 16.324219v257.960937c0 9.015626-7.308594 16.328126-16.324219 16.328126h-341.152344c-9.019531 0-16.328125-7.3125-16.328125-16.328126zm0 0" fill="#f8e47c"/><path d="m224.230469 228.441406c23.199219 23.199219 21.003906 63.003906 21.003906 63.003906s-39.808594 2.199219-63.007813-21c-15.566406-15.566406-19.699218-38.617187-20.730468-52.09375-.46875-6.074218 4.566406-11.109374 10.640625-10.640624 13.476562 1.03125 36.527343 5.164062 52.09375 20.730468zm0 0" fill="#7bd0a7"/><path d="m266.402344 249.144531c-23.199219 23.195313-21.003906 63.003907-21.003906 63.003907s39.808593 2.195312 63.007812-21.003907c15.566406-15.566406 19.699219-38.617187 20.730469-52.09375.46875-6.074219-4.566407-11.105469-10.640625-10.640625-13.476563 1.03125-36.527344 5.164063-52.09375 20.734375zm0 0" fill="#7bd0a7"/><path d="m277.066406 287.980469c-1.917968 0-3.839844-.734375-5.304687-2.199219-2.925781-2.925781-2.925781-7.675781 0-10.605469l20.378906-20.375c2.929687-2.929687 7.679687-2.929687 10.605469 0 2.929687 2.925781 2.929687 7.675781 0 10.605469l-20.375 20.375c-1.464844 1.464844-3.386719 2.199219-5.304688 2.199219zm0 0" fill="#70bd98"/><path d="m213.566406 267.28125c-1.921875 0-3.839844-.734375-5.304687-2.199219l-20.378907-20.378906c-2.929687-2.925781-2.929687-7.675781 0-10.605469 2.933594-2.925781 7.679688-2.925781 10.609376 0l20.375 20.378906c2.929687 2.929688 2.929687 7.679688 0 10.605469-1.464844 1.464844-3.382813 2.199219-5.300782 2.199219zm0 0" fill="#70bd98"/><path d="m194.585938 144.984375c0 28.324219 23.195312 51.226563 51.625 50.75 27.832031-.464844 49.890624-23.75 49.890624-51.582031v-41.449219c0-4.863281-4.417968-8.519531-9.203124-7.640625-23.636719 4.328125-41.554688 25.035156-41.554688 49.921875 0-24.890625-17.917969-45.59375-41.558594-49.921875-4.78125-.878906-9.199218 2.777344-9.199218 7.640625zm0 0" fill="#eb8d9a"/><path d="m123.625 58.441406h-48.855469c-9.019531 0-16.328125 7.308594-16.328125 16.324219v257.960937c0 9.015626 7.3125 16.328126 16.328125 16.328126h90.171875c-28.074218-90.789063-38.40625-200.71875-41.316406-290.613282zm0 0" fill="#edd35f"/><path d="m178.632812 443.710938c0-17.144532-17.449218-31.039063-38.972656-31.039063-21.527344 0-38.976562 13.894531-38.976562 31.039063 0 17.140624 17.449218 31.035156 38.976562 31.035156 21.523438 0 38.972656-13.894532 38.972656-31.035156zm0 0" fill="#eb8d9a"/><path d="m389.890625 443.710938c0-17.144532-17.449219-31.039063-38.972656-31.039063-21.527344 0-38.976563 13.894531-38.976563 31.039063 0 17.140624 17.449219 31.035156 38.976563 31.035156 21.523437 0 38.972656-13.894532 38.972656-31.035156zm0 0" fill="#eb8d9a"/><path d="m7.5 390.171875c0 63.140625 51.1875 114.328125 114.328125 114.328125h10.714844l-2.472657-2.4375c-9.953124-9.808594-15.554687-23.199219-15.554687-37.175781 0-37.222657-30.175781-67.398438-67.402344-67.398438-13.972656 0-27.367187-5.601562-37.175781-15.554687l-2.433594-2.472656v10.710937zm0 0" fill="#bebfc0"/><path d="m439.746094 332.726562v-257.960937c0-13.136719-10.6875-23.824219-23.824219-23.824219h-341.152344c-13.140625 0-23.828125 10.6875-23.828125 23.824219v26.238281c0 4.140625 3.359375 7.5 7.5 7.5 4.144532 0 7.5-3.359375 7.5-7.5v-26.238281c0-4.867187 3.960938-8.824219 8.828125-8.824219h341.152344c4.863281 0 8.824219 3.957032 8.824219 8.824219v257.960937c0 4.867188-3.960938 8.828126-8.824219 8.828126h-163.132813v-21.941407c13.597657-.566406 41.898438-4.140625 60.917969-23.164062 17.480469-17.480469 21.855469-43.105469 22.90625-56.824219.390625-5.078125-1.449219-10.054688-5.042969-13.648438s-8.570312-5.429687-13.648437-5.042968c-13.71875 1.050781-39.34375 5.425781-56.824219 22.90625-3.183594 3.183594-5.933594 6.628906-8.308594 10.21875v-51.308594c28.546876-3.742188 50.8125-28.761719 50.8125-58.597656v-41.449219c0-4.542969-2-8.8125-5.492187-11.722656-3.496094-2.914063-8.078125-4.117188-12.558594-3.296875-17.492187 3.203125-31.945312 14.027344-40.207031 28.675781-8.257812-14.648437-22.714844-25.472656-40.203125-28.675781-4.488281-.824219-9.0625.378906-12.5625 3.296875-3.488281 2.910156-5.488281 7.179687-5.488281 11.722656v42.285156c0 15.742188 6.183594 30.496094 17.40625 41.535157 9.171875 9.019531 20.765625 14.613281 33.292968 16.222656v30.527344c-2.363281-3.5625-5.097656-6.976563-8.253906-10.132813-17.480468-17.480469-43.105468-21.855469-56.824218-22.910156-5.089844-.390625-10.058594 1.449219-13.648438 5.046875-3.59375 3.59375-5.433594 8.566406-5.042969 13.648437 1.050781 13.71875 5.425781 39.34375 22.90625 56.824219 18.996094 18.996094 47.242188 22.585938 60.863281 23.160156v42.644532h-163.019531c-4.867187 0-8.828125-3.960938-8.828125-8.828126v-196.980468c0-4.140625-3.355468-7.5-7.5-7.5-4.140625 0-7.5 3.359375-7.5 7.5v196.980468c0 13.140626 10.6875 23.828126 23.828125 23.828126h341.152344c13.136719 0 23.824219-10.691407 23.824219-23.828126zm-168.042969-78.28125c14.066406-14.0625 35.714844-17.664062 47.363281-18.558593.070313-.003907.136719-.007813.203125-.007813.859375 0 1.425781.433594 1.695313.703125.289062.289063.765625.925781.691406 1.894531-.890625 11.652344-4.492188 33.300782-18.558594 47.367188-14.953125 14.953125-38.414062 18.109375-50.132812 18.71875.589844-11.703125 3.722656-35.097656 18.738281-50.117188zm-84.171875 10.695313c-14.066406-14.066406-17.664062-35.710937-18.558594-47.363281-.074218-.972656.402344-1.605469.691406-1.894532.273438-.273437.839844-.703124 1.695313-.703124.066406 0 .132813 0 .203125.007812 11.652344.894531 33.296875 4.492188 47.363281 18.558594 14.957031 14.953125 18.113281 38.414062 18.722657 50.132812-11.703126-.589844-35.097657-3.71875-50.117188-18.738281zm27.484375-89.3125c-8.335937-8.195313-12.929687-19.148437-12.929687-30.839844v-42.285156c0-.054687 0-.121094.097656-.199219.066406-.058594.132812-.074218.183594-.074218.027343 0 .050781.003906.070312.007812 20.515625 3.757812 35.40625 21.652344 35.40625 42.550781 0 4.140625 3.355469 7.5 7.5 7.5s7.5-3.359375 7.5-7.5c0-20.898437 14.890625-38.792969 35.40625-42.550781.054688-.007812.148438-.023438.257812.066406.09375.078125.09375.144532.09375.199219v41.449219c0 23.917968-19.070312 43.695312-42.515624 44.085937-11.679688.203125-22.734376-4.210937-31.070313-12.410156zm-60.140625 223.152344v13.765625c0 4.140625 3.355469 7.5 7.5 7.5 4.140625 0 7.5-3.359375 7.5-7.5v-13.765625c0-4.140625-3.359375-7.5-7.5-7.5-4.144531 0-7.5 3.359375-7.5 7.5zm165.828125 0v13.765625c0 4.140625 3.355469 7.5 7.5 7.5 4.140625 0 7.5-3.359375 7.5-7.5v-13.765625c0-4.140625-3.359375-7.5-7.5-7.5-4.144531 0-7.5 3.359375-7.5 7.5zm95.085937-398.980469h-340.890624c-41.296876 0-74.898438 33.597656-74.898438 74.898438v315.273437c0 67.175781 54.652344 121.828125 121.828125 121.828125h280.722656c4.140625 0 7.5-3.359375 7.5-7.5s-3.359375-7.5-7.5-7.5h-266.933593l-.28125-.277344c-8.46875-8.34375-13.324219-19.949218-13.324219-31.835937 0-41.300781-33.597657-74.898438-74.898438-74.898438-11.886719 0-23.488281-4.855469-31.835937-13.324219l-.277344-.28125v-301.484374c0-33.027344 26.871094-59.898438 59.898438-59.898438h340.890624c33.027344 0 59.898438 26.871094 59.898438 59.898438v362.203124c0 26.023438-16.613281 48.917969-41.335938 56.96875-3.941406 1.28125-6.09375 5.515626-4.8125 9.453126s5.511719 6.09375 9.453126 4.808593c30.921874-10.066406 51.695312-38.691406 51.695312-71.230469v-362.203124c0-41.300782-33.597656-74.898438-74.898438-74.898438zm-368.675781 404.988281c33.027344 0 59.898438 26.871094 59.898438 59.898438 0 11.335937 3.324219 22.472656 9.328125 31.972656-54.546875-2.769531-98.429688-46.652344-101.203125-101.203125 9.507812 6.007812 20.640625 9.332031 31.976562 9.332031zm214.378907 3.441407c-4.089844 4.691406-9.996094 7.386718-16.203126 7.386718-6.210937 0-12.117187-2.695312-16.207031-7.386718-2.722656-3.125-7.460937-3.449219-10.582031-.730469-3.121094 2.722656-3.449219 7.460937-.726562 10.582031 6.941406 7.964844 16.96875 12.53125 27.515624 12.53125 10.542969 0 20.574219-4.566406 27.515626-12.53125 2.71875-3.121094 2.394531-7.859375-.730469-10.582031-3.125-2.71875-7.859375-2.394531-10.582031.730469zm0 0"/></svg>